<?xml version="1.0"?>
<svg xmlns="http://www.w3.org/2000/svg" xmlns:xlink="http://www.w3.org/1999/xlink" version="1.1" id="Layer_1" x="0px" y="0px" viewBox="0 0 491.52 491.52" style="enable-background:new 0 0 491.52 491.52;" xml:space="preserve" width="512px" height="512px" class=""><g><path style="fill:#428EFF" d="M411.853,0H123.294C90.109,0,63.209,26.901,63.209,60.084v372.038  c0.946-31.538,365.129-52.329,365.129-47.983V16.484C428.338,7.38,420.957,0,411.853,0z" data-original="#64798A" class="active-path" data-old_color="#428eff"/><rect x="123.29" style="fill:#3A556A;" width="9.871" height="385.843" data-original="#3A556A" class=""/><path style="fill: rgb(47, 72, 89);" d="M120.809,475.778c-24.475,0-44.116-21.105-41.679-46.071c2.124-21.759,21.685-37.699,43.547-37.699  h297.792c4.346,0,7.869-3.523,7.869-7.869l0,0c0-4.346-3.523-7.869-7.869-7.869H123.221c-31.552,0-59.066,24.314-60.012,55.853  c-0.979,32.635,25.184,59.396,57.597,59.396h299.664c4.346,0,7.869-3.523,7.869-7.869v-0.005c0-4.345-3.523-7.868-7.869-7.868  H120.809z" data-original="#2F4859" class="" data-old_color="#64798A"/><path style="fill:#EBF0F3;" d="M79.131,429.707c-2.438,24.965,17.203,46.072,41.679,46.072h298.167  c-12.996-27.924-12.996-55.846,0-83.77H122.677C100.814,392.009,81.254,407.949,79.131,429.707z" data-original="#EBF0F3" class=""/><g>
	<path style="fill:#E1E6E9;" d="M104.842,411.117h307.357c0.28-1.107,0.644-2.213,0.966-3.319H104.842V411.117z" data-original="#E1E6E9" class=""/>
	<path style="fill:#E1E6E9;" d="M104.842,423.332h305.011c0.131-1.107,0.41-2.214,0.58-3.32H104.842V423.332z" data-original="#E1E6E9" class=""/>
	<path style="fill:#E1E6E9;" d="M104.842,435.554h304.484c-0.022-1.107-0.022-2.213,0-3.32H104.842V435.554z" data-original="#E1E6E9" class=""/>
	<path style="fill:#E1E6E9;" d="M104.842,447.775h305.591c-0.17-1.107-0.449-2.213-0.58-3.319H104.842V447.775z" data-original="#E1E6E9" class=""/>
	<path style="fill:#E1E6E9;" d="M104.842,459.991h308.324c-0.322-1.107-0.687-2.215-0.966-3.32H104.842V459.991z" data-original="#E1E6E9" class=""/>
</g><g>
	<rect x="169.472" y="67.328" style="fill:#D5D6DB;" width="42.921" height="42.926" data-original="#D5D6DB" class=""/>
	<rect x="257.792" y="67.328" style="fill:#D5D6DB;" width="42.926" height="42.926" data-original="#D5D6DB" class=""/>
	<rect x="346.163" y="67.328" style="fill:#D5D6DB;" width="42.921" height="42.926" data-original="#D5D6DB" class=""/>
	<rect x="169.472" y="275.553" style="fill:#D5D6DB;" width="42.921" height="42.926" data-original="#D5D6DB" class=""/>
	<rect x="257.792" y="275.553" style="fill:#D5D6DB;" width="42.926" height="42.926" data-original="#D5D6DB" class=""/>
	<rect x="346.163" y="275.553" style="fill:#D5D6DB;" width="42.921" height="42.926" data-original="#D5D6DB" class=""/>
</g><path style="fill:#FFFFFF" d="M279.266,140.563c-28.912,0-52.351,23.437-52.351,52.351c0,28.911,23.439,52.35,52.351,52.35  c28.911,0,52.35-23.439,52.35-52.35C331.616,164,308.178,140.563,279.266,140.563z M306.013,195.228l-37.574,31.5  c-1.966,1.649-4.961,0.25-4.961-2.315v-62.998c0-2.566,2.995-3.964,4.961-2.316l37.574,31.5  C307.452,191.806,307.452,194.021,306.013,195.228z" data-original="#FFFFFF" class="" data-old_color=" rgb(255, 255, 255)"/></g> </svg>
